<?xml version="1.0" encoding="UTF-8"?>
<svg id="Layer_1" xmlns="http://www.w3.org/2000/svg" version="1.1" viewBox="0 0 931 931">
  <!-- Generator: Adobe Illustrator 30.2.1, SVG Export Plug-In . SVG Version: 2.1.1 Build 1)  -->
  <defs>
    <style>
      .st0 {
        fill: #00e7ff;
      }

      .st1 {
        fill: #33404f;
        fill-rule: evenodd;
      }
    </style>
  </defs>
  <path class="st0" d="M48.2,0h834.8c13.2,4.4,25.9,11.9,34.2,23.3,7.2,9,10.6,20.3,13.3,31.3v816.7c-2.2,7.7-3.8,15.7-7.9,22.7-7.3,13.6-17.9,27.7-32.5,32.9-3.1,1.2-8.1,3.1-11.3,4.1H53.2c-9.9-2.4-19.6-10.5-27.8-16.7-12-9.2-19.9-23.1-23.5-37.7-2.1-8-1.5-16.4-1.5-24.6,0-263.7,0-527.4,0-791,.2-7.9,2.5-15.6,5.2-23,4-10.4,11.2-19.3,19.8-26.2,6.7-5.5,14.8-8.8,22.8-11.8Z"/>
  <path class="st1" d="M416.1,159.9c0,27,22.4,49.4,49.4,49.4s50-22.4,50-49.4-22.4-50-50-50-49.4,22.4-49.4,50ZM184,329.3h0l5.7-6.3c36.2-35.6,83.9-54,131.6-54s94.8,18.4,131,54l13.2,13.8,28.2,28.2h0l41.9,41.4,28.2,28.7h0c27,27,40.8,62,40.8,97.7s-13.8,71.2-40.8,98.2h0c-27,27-62.6,40.8-98.2,40.8s-35-3.4-51.7-10.3l-39.1,22.4v-46l-1.1-1.1h0l-6.3-5.7c-27-27-40.2-62.6-40.2-98.2s13.2-70.7,40.2-97.7l70.1-70.1,28.2,28.2-69.5,70.1c-19.5,19-29.3,44.2-29.3,69.5s9.8,50.6,28.7,70.1h.6v41.4l33.3-19c11.5,4,24.1,6.3,36.2,6.3,25.3,0,51.1-9.2,70.1-28.7h0c19.5-19,28.7-44.2,28.7-70.1s-9.2-50.6-28.7-69.5h0l-24.1-24.1h0l-46-46-28.2-28.2-10.9-10.9-2.3-2.3c-28.2-28.7-65.5-42.5-102.8-42.5s-74.7,13.8-102.8,41.9v.6c-28.7,28.2-42.5,65.5-42.5,102.8h0c0,37.3,13.8,74.7,42.5,102.8l27,27.6,220,220,220-220,27.6-27.6c28.2-28.2,42.5-65.5,42.5-102.8h0c0-37.3-14.4-74.7-42.5-102.8l-.6-.6c-28.2-28.2-65.5-41.9-102.3-41.9s-89,29.9-116.6,55.7l-28.2-28.7c35-33.3,98.8-67.2,144.8-67.2s94.8,18.4,131,54l5.7,6.3h0c32.2,35,48.3,80.4,48.3,125.2h0c0,47.1-17.8,94.8-54,131l-27.6,27.6-233.8,233.8-14.4,14.4-13.8-14.4-234.4-233.8-27.6-27.6c-35.6-36.2-54-83.9-54-131h0c0-44.8,16.1-90.2,48.3-125.2ZM432.8,532.7c0-9.2-7.5-16.7-17.2-16.7s-16.7,7.5-16.7,16.7,7.5,17.2,16.7,17.2,17.2-7.5,17.2-17.2ZM532.7,532.7c0-9.2-8-16.7-17.2-16.7s-16.7,7.5-16.7,16.7,7.5,17.2,16.7,17.2,17.2-7.5,17.2-17.2ZM482.7,532.7c0-9.2-7.5-16.7-17.2-16.7s-16.7,7.5-16.7,16.7,7.5,17.2,16.7,17.2,17.2-7.5,17.2-17.2ZM375.3,159.9c0,49.4,40.8,90.2,90.2,90.2s90.2-40.8,90.2-90.2-40.2-90.2-90.2-90.2-90.2,40.2-90.2,90.2Z"/>
</svg>