<?xml version="1.0" encoding="UTF-8"?>
<svg id="Layer_1" xmlns="http://www.w3.org/2000/svg" version="1.1" viewBox="0 0 1776.7 483.8">
  <!-- Generator: Adobe Illustrator 30.2.1, SVG Export Plug-In . SVG Version: 2.1.1 Build 1)  -->
  <defs>
    <style>
      .st0 {
        fill: #fff;
      }
    </style>
  </defs>
  <path class="st0" d="M180.9,71.3c14-2.7,29.1,4.5,35.8,17.1,6.6,11.4,5.6,26.7-2.4,37.1-9.8,13.9-30.4,18-44.8,9.1-7.3-4.2-12.7-11.4-15.5-19.3-2.2-7.7-2-16.3,1.3-23.8,4.5-10.5,14.4-18.5,25.7-20.2ZM181.8,87c-7,2.1-12.6,8.4-13.4,15.7-1.8,11.2,8.9,22.2,20.1,20.9,10.1-.7,18.5-10.9,16.9-20.9-1.1-10.9-13.1-19.1-23.6-15.6Z"/>
  <path class="st0" d="M104.6,151.8c17.8-7.5,38.6-7.4,56.2.5,10,4.3,18.5,11.3,25.9,19.2,7.4-6.8,15.9-12.2,24.7-16.8,9.1-4.3,18.8-8.1,29.1-8.4,16.4-.3,32.9,5.3,45.6,15.8,13.5,10.8,22.4,27,24.9,44,3.3,21-3.6,43.4-18.3,58.8-35.2,35.3-70.5,70.5-105.8,105.8-34.5-34.3-68.8-68.8-103.3-103.2-9.9-9.4-16.6-21.8-19.9-34.9-4.5-20-.5-42.1,12.2-58.3,7.2-10,17.4-17.6,28.7-22.5ZM78.3,206.4c-3,16.1,1.5,33.7,12.5,46,14.8,15.5,30.2,30.4,45.3,45.7,16.9,16.8,33.6,33.8,50.5,50.4,1.9-.7,3.2-2.7,4.7-4,29.6-29.7,59.3-59.3,89-89,14-13.9,19.8-35.5,14-54.5-4.8-17.1-18.6-31.2-35.5-36.7-8.4-2.5-17.6-3.9-26.1-1.4-12.9,3.8-24.8,10.8-34.9,19.5,8.1,8.2,16.3,16.4,24.5,24.5,5.3,5.5,10.4,11.5,13.1,18.8,4.2,9.7,5.1,20.6,3,30.9-3.4,18-17.1,33.7-34.5,39.4-11.8,4.1-25,3.6-36.6-.9-5,2.8-10,5.6-15,8.4-.1-5.8,0-11.7,0-17.5-9.5-8.6-16.2-20.4-17.5-33.3-2.1-15.4,3.2-31.6,14-42.9,9-9.1,18.2-18,27.1-27.2-3.2-3.3-6.3-6.7-9.9-9.5-11.6-8.9-26.8-13.2-41.3-11-22.9,2.6-42.5,21.6-46.4,44.2ZM160.2,220.3c-6.7,6.6-10.4,16-10.7,25.3,0,8.8,3,17.6,8.7,24.4,1,1.4,2.6,2.7,2.5,4.6.2,4.4,0,8.8,0,13.2,4.2-2.1,8.3-4.4,12.4-6.8,14,5.2,31,1.7,41.2-9.5,12.3-12.8,13.1-34.8,1.9-48.5-6.4-6.5-13-12.9-19.4-19.5-3.4-3.3-6.4-7-10.2-9.9-8.8,8.9-17.4,17.9-26.3,26.6Z"/>
  <path class="st0" d="M712.8,186c4.8-1.3,10.1-1.2,14.8.3,4.8,1.9,9.1,6,10.1,11.2,1.3,6.2.6,13.5-4.3,18.1-6.6,6-17.4,6.4-25,2.1-6.8-3.9-8.6-12.8-6.9-20,1.2-5.6,5.8-10.1,11.3-11.6Z"/>
  <path class="st0" d="M333.3,217.5c7.8-13.9,23.9-20.8,39.1-22.5,15.8-1.4,33.3.4,46,10.7,10.6,8.2,15.7,21.5,17.1,34.4-12,0-24.1,0-36.1,0-.9-5.5-2.9-11.2-7.3-15-5.8-4.4-14.5-5.6-20.9-1.7-4.9,2.9-5.9,9.7-4.1,14.7,1.3,3.8,4.7,6.1,8,8,11.7,6.3,25.5,6.6,37.4,12.5,7.8,3.6,15.2,8.8,20,16.1,5.8,9.1,7,20.6,4.9,31-2.5,11.9-11.8,21.3-22.6,26.3-16.9,7.9-36.5,8-54.4,3.9-11.7-2.7-23.2-8.8-30-19.1-4.4-7-6.9-15.2-7.5-23.4,12.1-.2,24.2-.2,36.3,0,1.3,5.9,4.5,11.7,9.9,14.8,6.7,4.2,15.4,4.8,22.8,2.1,4.3-1.8,8.3-5.5,8.5-10.4.5-5.3-3.2-9.8-7.4-12.5-8.9-5-19.2-6.2-28.7-9.5-9.6-3.1-19.2-7.2-26.4-14.5-4.9-4.7-7.6-11.3-8.9-17.9-1.4-9.4-.9-19.5,4.2-27.7Z"/>
  <path class="st0" d="M471.9,234c13.9-8.3,31.1-10.2,46.7-6.5,15.9,3.7,29.1,16,34.7,31.3,4,10.2,4.5,21.5,3.4,32.3-24.8,0-49.7,0-74.5,0,.7,6.4,2.2,13.2,6.7,18,6.4,5.8,16.6,5.9,23.9,1.8,3.8-2.2,5.8-6.4,7-10.5,11.8,0,23.7,0,35.5,0-3.2,12.3-10.8,23.8-22,30.1-14,8.2-31.2,9.5-47,6.3-14.4-3-27.7-12.3-34.1-25.8-5.6-11.1-6.7-24.2-5.5-36.4,1.8-16.3,10.8-32.2,25.1-40.6ZM489.3,255.5c-3.3,3.8-5,8.6-5.9,13.4,11.9,0,23.9-.1,35.8,0-.7-5.5-2.7-11.3-7-15-6.5-5.3-17.2-4.7-22.8,1.6Z"/>
  <path class="st0" d="M619.2,231.5c9.5-5.6,21.1-6.6,31.8-5.2,9.5,1.3,19.4,5.8,24.4,14.4,4.9,8,5.7,17.8,5.9,27,0,22.7,0,45.3,0,68-12.1,0-24.1.1-36.2-.1-.3-21.3,0-42.5-.2-63.8,0-5.6-.5-11.7-4.2-16.2-3.6-4.3-9.8-5.5-15.1-5-4.9.4-8.9,3.9-11.2,8-4.4,7.5-5.2,16.5-5.4,25,0,17.3,0,34.7,0,52-12.1,0-24.3,0-36.4,0,0-35.8,0-71.5,0-107.3,12.1.2,24.3,0,36.4,0,.2,5.1-.7,10.2.6,15.2,3.4-3.9,5.6-8.8,9.6-12.2Z"/>
  <path class="st0" d="M801.9,226.2c14.8-1.7,30.6.5,43.3,8.8,11.4,7.3,19.2,19.5,21.6,32.8,3.3,16.7,1.3,35.3-8.9,49.3-7.7,10.9-20.1,17.7-33,20.1-15.3,2.8-31.9,1.4-45.7-6.2-13.5-7.4-22.7-21.6-25-36.7-2.6-16.4-.4-34.6,10-48.1,8.8-11.9,23.2-18.5,37.7-20ZM804.8,251.2c-4.1,1.3-7.4,4.4-9.7,8-4.3,7-4.8,15.5-4.9,23.5.2,8.7,1.2,18.3,7.1,25.2,6.8,8.2,21.2,7.8,27.5-.8,6.1-8.4,6.6-19.4,6.2-29.4-.6-8-2.1-16.6-8-22.5-4.7-4.7-12.1-5.6-18.3-3.9Z"/>
  <path class="st0" d="M933.1,230.3c6.9-4.7,15.6-5.2,23.6-4,0,9.8,0,19.7,0,29.5-9-.2-18.9-.2-26.4,5.6-7.7,6.3-9.5,17-10.2,26.4-.4,15.9,0,31.9-.2,47.8-12.1,0-24.3,0-36.4,0,.1-35.7-.1-71.5,0-107.2,12.1,0,24.3,0,36.4,0,0,6.9-.2,13.8.1,20.7,3.9-6.6,5.8-15.2,13.1-18.9Z"/>
  <path class="st0" d="M701.5,228.4c12.1,0,24.1,0,36.2,0-.1,35.7.2,71.5-.1,107.2-12,0-24,0-36.1,0,0-35.7,0-71.5,0-107.2Z"/>
  <path class="st0" d="M165.8,240c4.6-1.7,9.9,2.7,8.6,7.5-.6,5.1-7.7,6.8-11.1,3.3-3.2-3.2-2.1-9.7,2.5-10.9Z"/>
  <path class="st0" d="M184.7,240c4.2-1.5,9.3,2.1,8.7,6.7,0,4.9-6.1,7.7-10,5.2-4.5-2.5-3.8-10.5,1.3-11.8Z"/>
  <path class="st0" d="M203.7,240c4.4-1.7,9.7,2.8,8.4,7.5-.6,5.6-9.2,7.2-11.9,2.3-2.2-3.4-.6-8.7,3.5-9.8Z"/>
  <g>
    <path class="st0" d="M1032.4,193.8h-62v140.4h29.4v-51h32.6c27.5,0,45-18.4,45-44s-17.6-45.5-45-45.5ZM1027.8,259.3h-27.9v-41.2h27.9c16.9,0,23.9,8.7,23.9,20.3s-7,20.9-23.9,20.9Z"/>
    <path class="st0" d="M1135.2,227.4c-33,0-53.5,21.8-53.5,54.8s19.9,54.8,53.5,54.8,52.9-21.8,52.9-54.8-20.3-54.8-52.9-54.8ZM1135.2,313.9c-16.7,0-25.2-10.6-25.2-31.7s8.5-31.5,25.2-31.5,25.2,10.4,25.2,31.5-8.5,31.7-25.2,31.7Z"/>
    <path class="st0" d="M1269.5,243.7c-7.8-11-18-16.3-30.9-16.3-26.9,0-42.7,22.2-42.7,53.7s18.8,55.8,45,55.8,22.4-4.9,29-15.4l.2,12.7h26.4v-142.1h-27.1v51.6ZM1247.3,314.5c-13.7,0-23.5-12.9-23.5-31.5s7.6-32.1,23.7-32.1,23.1,11.2,23.1,33.8-10.2,29.8-23.3,29.8Z"/>
    <path class="st0" d="M1355.2,250.2c10.4,0,18.2,6.3,19.7,17.1h27.7c-1.7-24.5-20.1-40-47.2-40s-48.6,16.3-48.6,53.5,19.5,56,47.8,56,44.8-16.3,47.8-40.4h-27.7c-1.1,11.2-9.5,17.3-20.3,17.3s-20.3-11-20.3-33.6,9.5-30,21.1-30Z"/>
    <path class="st0" d="M1456.7,227.4c-33.4,0-45.3,15-45.7,36.6h25.6c1.3-9.3,6.3-15.4,18.8-15.4s17.6,4,17.6,10.8-3.8,9.9-17.6,11.8c-27.7,3.8-47.8,7.2-47.8,37.2s11,28.5,34.7,28.5,25-4.9,31.5-12.1c.2,3.2.8,6.8,1.7,9.3h25.6v-65.8c0-26.2-11.4-41-44.4-41ZM1473.4,294.6c-.2,12.3-10.8,22.6-25,22.6s-13.3-3.8-13.3-11.6,5.1-13.3,20.7-16.3c10.2-1.9,15-3.4,17.8-6.1l-.2,11.4Z"/>
    <path class="st0" d="M1588,277.3c-8-3.2-19.2-5.5-31.1-8.9-11.2-3.2-16.9-5.7-16.9-11.8s5.9-8.7,16.3-8.7,18,3.6,19.5,13.7h26.4c-1.5-22.4-15-34.3-45-34.3s-43.8,13.3-43.8,30.9,3.4,17.3,13.1,23.5c7.4,4.7,17.1,7.6,34.7,11.8,8.9,2.1,16.7,4.4,16.7,11.8s-8.7,10.8-18.4,10.8-21.6-5.7-21.6-15.4h-28.3c.4,21.1,18.2,36.2,50.1,36.2s45.5-12.9,45.5-34.5-6.1-20.7-17.1-25.2Z"/>
    <path class="st0" d="M1654.6,313c-11.2,0-15.9-7.6-15.9-20.7v-42.7h34.5v-19.5h-34.5v-28.1h-27.1v93.1c0,22.4,12.1,41.9,42.5,41.9s.3,0,.4,0h0s25.6,0,25.6,0v-23.9h-25.6Z"/>
  </g>
  <path class="st0" d="M1700.2,308c5.7-1.6,12.5,0,16.2,4.8,4.3,5.6,4,14.3-.7,19.6-5.9,6.4-17.6,6.1-22.9-1-5.8-7.7-2.6-21.1,7.4-23.4Z"/>
</svg>