<?xml version="1.0" encoding="UTF-8"?>
<svg id="Layer_1" xmlns="http://www.w3.org/2000/svg" version="1.1" viewBox="0 0 1700 352.8">
  <!-- Generator: Adobe Illustrator 30.2.1, SVG Export Plug-In . SVG Version: 2.1.1 Build 1)  -->
  <defs>
    <style>
      .st0, .st1 {
        fill: #33404f;
      }

      .st1 {
        fill-rule: evenodd;
      }
    </style>
  </defs>
  <g>
    <path class="st0" d="M407.8,195.8h-36c-1.6-11.4-7.6-19-19.4-19s-13.8,4-13.8,12.4,6.4,14.2,29.2,19.6c30.4,7.2,42.8,22.4,42.8,43.6s-26.4,41.6-54.2,41.6-58.6-14-60.8-45h36c2.4,13,13,18.6,23.8,18.6s17.6-5.2,17.6-12.8-5.2-13.4-22.2-17.6c-31.4-7.8-49.8-17.6-49.8-45.2s24.8-41.6,52.2-41.6,51.6,19.8,54.6,45.4Z"/>
    <path class="st0" d="M528.9,246.8h-74.4c1.8,17.8,9.6,22.8,19.8,22.8s16.4-5.2,17.8-13.4h35.4c-6.2,24.2-26.2,37.8-53.6,37.8s-55-18.2-55-55.8,21.4-56.6,57-56.6,53.6,27.2,53.6,54.8-.2,6.8-.6,10.4ZM455.6,224.8h36.2c-2-12.6-8.2-18.8-17.8-18.8s-16,5.6-18.4,18.8Z"/>
    <path class="st0" d="M653.6,230.8v60.4h-36v-54.4c0-3.4,0-9.2-.4-14.6-.8-10.2-6.4-16.2-17.2-16.2s-18.8,10.6-18.8,34.8v50.4h-36v-106.9h36v16.6l9.6-13.2c6.6-4,14.2-6.2,24-6.2,22,0,35,10.4,37.8,29,.8,5.4,1,11.6,1,20.2Z"/>
    <path class="st0" d="M710.6,158.6c0,10.8-7.4,17.6-18.6,17.6s-18.6-6.8-18.6-17.6,7.4-17.6,18.6-17.6,18.6,6.8,18.6,17.6ZM674,291.2v-106.9h36v106.9h-36Z"/>
    <path class="st0" d="M840.5,237.8c0,34.2-22.4,56.2-57.4,56.2s-57.4-22-57.4-56.2,22.4-56.2,57.4-56.2,57.4,21.8,57.4,56.2ZM803.7,237.8c0-21.4-7.8-31.8-20.6-31.8s-20.6,10.4-20.6,31.8,7.8,31.8,20.6,31.8,20.6-10.6,20.6-31.8Z"/>
    <path class="st0" d="M928.9,182.2v29.4c-27-1.8-36.8,8.2-36.8,40.4v39.2h-36v-106.9h36v21.6l7.6-15c5.8-6.4,14.2-9.4,21-9.4s5.6.2,8.2.6Z"/>
    <path class="st0" d="M972.4,245.6l-15,45.6h-23.4l49.6-138.1h28.4l48.2,138.1h-23.8l-15-45.6h-49ZM1015.6,228.2l-18.2-56.8-19.2,56.8h37.4Z"/>
    <path class="st0" d="M1171.5,291.2h-22v-16.8l-8,11.6c-6,4.8-17,8-27.8,8-30.4,0-47.8-23-47.8-54.2s24-57.6,51.4-57.6,19.8,2.4,25.2,6.6l7,10.6v-55.2h22v147.1ZM1149.5,239.2v-5.6c0-25.8-15.6-35.4-29.8-35.4s-30.6,13.4-30.6,39.8,10.6,40,29.6,40,30.8-10.4,30.8-38.8Z"/>
    <path class="st0" d="M1252.4,291.2h-25.6l-40.6-106.3h24.2l29.8,90.1,29.4-90.1h23.4l-40.6,106.3Z"/>
    <path class="st0" d="M1331.4,160.6c0,7.4-5.6,12.8-13,12.8s-12.8-5.4-12.8-12.8,5.4-12.6,12.8-12.6,13,5.4,13,12.6ZM1307.4,291.2v-106.3h22v106.3h-22Z"/>
    <path class="st0" d="M1432.3,215.4h-22.4c-2.2-11.2-8.8-17.8-19.6-17.8s-15.4,5.8-15.4,13.8,7.8,13.6,23.6,17.8c23.2,6,35.4,15.2,35.4,34s-18.2,30.8-41.4,30.8-41-10.6-44-34.6h22.2c2.6,13.6,11.6,19,22.6,19s18.4-4.4,18.4-13.6-7.2-14.2-25.2-19c-19.4-5-33.8-13.2-33.8-31.8s15.6-31.8,39.2-31.8,38,13.8,40.4,33.2Z"/>
    <path class="st0" d="M1552.6,238c0,31-18.2,56-53.8,56s-53.8-25-53.8-56,18-55.8,53.8-55.8,53.8,24.8,53.8,55.8ZM1529.1,238c0-24-11.2-39.8-30.4-39.8s-30.6,15.8-30.6,39.8,11.2,40,30.6,40,30.4-16,30.4-40Z"/>
    <path class="st0" d="M1626.8,183.6v17.2c-20.2-1.4-32.8,9-32.8,35.2v55.2h-22v-106.3h22v18l9-14.6c4.8-3.8,11-6,16.4-6s5.2.4,7.4,1.2Z"/>
    <path class="st0" d="M1665.6,279.4c0,8.4-6.2,14.6-14.6,14.6s-14.6-6.2-14.6-14.6,6-14.6,14.6-14.6,14.6,6,14.6,14.6Z"/>
  </g>
  <path class="st1" d="M140.5,60.8c0,10.2,8.5,18.7,18.7,18.7s18.9-8.5,18.9-18.7-8.5-18.9-18.9-18.9-18.7,8.5-18.7,18.9ZM52.6,124.9h0l2.2-2.4c13.7-13.5,31.7-20.4,49.8-20.4s35.9,7,49.6,20.4l5,5.2,10.7,10.7h0l15.9,15.7,10.7,10.9h0c10.2,10.2,15.4,23.5,15.4,37s-5.2,27-15.4,37.2h0c-10.2,10.2-23.7,15.4-37.2,15.4s-13.3-1.3-19.6-3.9l-14.8,8.5v-17.4l-.4-.4h0l-2.4-2.2c-10.2-10.2-15.2-23.7-15.2-37.2s5-26.7,15.2-37l26.5-26.5,10.7,10.7-26.3,26.5c-7.4,7.2-11.1,16.7-11.1,26.3s3.7,19.1,10.9,26.5h.2v15.7l12.6-7.2c4.3,1.5,9.1,2.4,13.7,2.4,9.6,0,19.3-3.5,26.5-10.9h0c7.4-7.2,10.9-16.7,10.9-26.5s-3.5-19.1-10.9-26.3h0l-9.1-9.1h0l-17.4-17.4-10.7-10.7-4.1-4.1-.9-.9c-10.7-10.9-24.8-16.1-38.9-16.1s-28.3,5.2-38.9,15.9v.2c-10.9,10.7-16.1,24.8-16.1,38.9h0c0,14.1,5.2,28.3,16.1,38.9l10.2,10.4,83.3,83.3,83.3-83.3,10.4-10.4c10.7-10.7,16.1-24.8,16.1-38.9h0c0-14.1-5.4-28.3-16.1-38.9l-.2-.2c-10.7-10.7-24.8-15.9-38.7-15.9s-33.7,11.3-44.1,21.1l-10.7-10.9c13.3-12.6,37.4-25.4,54.8-25.4s35.9,7,49.6,20.4l2.2,2.4h0c12.2,13.3,18.3,30.4,18.3,47.4h0c0,17.8-6.7,35.9-20.4,49.6l-10.4,10.4-88.5,88.5-5.4,5.4-5.2-5.4-88.7-88.5-10.4-10.4c-13.5-13.7-20.4-31.7-20.4-49.6h0c0-17,6.1-34.1,18.3-47.4ZM146.8,201.9c0-3.5-2.8-6.3-6.5-6.3s-6.3,2.8-6.3,6.3,2.8,6.5,6.3,6.5,6.5-2.8,6.5-6.5ZM184.6,201.9c0-3.5-3-6.3-6.5-6.3s-6.3,2.8-6.3,6.3,2.8,6.5,6.3,6.5,6.5-2.8,6.5-6.5ZM165.7,201.9c0-3.5-2.8-6.3-6.5-6.3s-6.3,2.8-6.3,6.3,2.8,6.5,6.3,6.5,6.5-2.8,6.5-6.5ZM125,60.8c0,18.7,15.4,34.1,34.1,34.1s34.1-15.4,34.1-34.1-15.2-34.1-34.1-34.1-34.1,15.2-34.1,34.1Z"/>
</svg>