<?xml version="1.0" encoding="UTF-8"?>
<svg id="Layer_1" xmlns="http://www.w3.org/2000/svg" version="1.1" viewBox="0 0 350 200.7">
  <!-- Generator: Adobe Illustrator 30.1.0, SVG Export Plug-In . SVG Version: 2.1.1 Build 136)  -->
  <defs>
    <style>
      .st0 {
        fill: #e2273b;
      }
    </style>
  </defs>
  <path class="st0" d="M175.6,182.1c0,1.9,0,3.9-.5,5.7-.3,1-1,2-2.1,2.2-.9.1-1.8.2-2.7-.2-1.1-.5-1.5-1.7-1.7-2.9-.4-2.8-.2-5.6-.3-8.4,0-2.7-.1-5.4.3-8.1.2-1.2.8-2.7,2.1-3.1,1.4-.4,3.4-.2,4.1,1.3,1,2,.8,4.3.9,6.5h9.3c0-3.7.2-7.7-1.7-10.9-1.5-2.7-4.4-4.4-7.4-4.9-3.6-.6-7.4-.5-10.7,1-3,1.3-5,4.2-5.6,7.3-.4,1.6-.4,3.2-.4,4.8,0,3.2,0,6.5,0,9.7,0,2.8-.2,5.7.7,8.5.7,2.3,2.1,4.4,4.2,5.6,3,1.9,6.7,2.1,10.2,1.9,3.5-.3,7.2-1.8,9-5,2-3.3,1.8-7.4,1.8-11.1h-9.2Z"/>
  <path class="st0" d="M213.5,167.6c-.7-2.7-2.4-5.2-4.9-6.6-3.1-1.7-6.7-1.8-10.1-1.6-3.1.3-6.3,1.4-8.3,3.9-2.4,2.9-2.7,6.9-2.5,10.5,0,5.6,0,11.1,0,16.7-.1,2.5.2,5,0,7.5,3.1,0,6.2,0,9.3,0,0-5.1,0-10.1,0-15.2h7.8c0,5.1,0,10.1,0,15.2,3.1,0,6.1,0,9.2,0,0-8,0-15.9,0-23.9,0-2.2.1-4.4-.5-6.5ZM196.9,175.6c0-2,0-4.1.6-6.1.8-2.8,5.5-2.8,6.5-.1.7,2,.7,4.1.7,6.2-2.6,0-5.2,0-7.8,0Z"/>
  <path class="st0" d="M242.8,167.2c-.7-2.6-2.5-5-4.9-6.2-3.1-1.7-6.7-1.7-10.2-1.5-2.9.3-5.9,1.4-7.9,3.7-1.9,2.2-2.7,5.3-2.7,8.2v26.7h9.2v-17.8c0-3.2-.2-6.4.3-9.5.2-1.1.7-2.4,1.8-2.9,1.3-.5,2.8-.5,4,.2,1.5,1.2,1.6,3.4,1.7,5.3,0,8.3,0,16.5,0,24.8,3.1,0,6.2,0,9.3,0,0-6.9,0-13.9,0-20.9,0-3.3.3-6.8-.6-10Z"/>
  <path class="st0" d="M123.6,161c0,6.8,0,13.6,0,20.4,0,2.1,0,4.2-.2,6.3-.2,1.3-.6,2.7-1.8,3.4-1.4.7-3.3.6-4.5-.5-1.2-1.4-1.2-3.4-1.4-5.1,0-8.2,0-16.4,0-24.5h-9.2c0,8.8,0,17.7,0,26.5,0,3.5,1.1,7.3,4,9.5,3,2.4,6.9,2.8,10.6,2.6,3.4-.1,7.1-1.3,9.2-4,2.1-2.6,2.6-6,2.5-9.2,0-8.5,0-16.9,0-25.4h-9.3Z"/>
  <path class="st0" d="M137.7,183h17.7c0-2.3,0-4.7,0-7h-17.7v7Z"/>
  <path class="st0" d="M348.4,36.5c-36.4,0-72.9,0-109.3,0-5.1-7.9-11.6-14.9-19.1-20.5-9.5-7-20.7-11.8-32.4-13.8-17.6-3-36.3.4-51.6,9.6-10.3,6.1-19,14.7-25.5,24.7-36.2,0-72.5,0-108.7,0,3.7,3.7,7.4,7.4,11.1,11.1,30.6,0,61.2,0,91.8,0-1.7,4-3,8.2-4,12.5-25.1,0-50.2,0-75.4,0,3.7,3.7,7.4,7.4,11.1,11.1,20.8,0,41.7,0,62.5,0-.4,4.1-.4,8.3,0,12.4-16.7,0-33.5,0-50.2,0,3.7,3.7,7.4,7.4,11.1,11.1,13.6,0,27.2,0,40.8,0,1,4.2,2.3,8.4,4.1,12.5-10.8,0-21.6,0-32.4,0,3.7,3.7,7.4,7.4,11.1,11.1,9.1,0,18.2,0,27.3,0,7.6,12,18.7,21.7,31.5,27.8,17.9,8.6,39.1,9.7,57.8,3.1,16-5.5,30-16.7,39.1-30.9,9.3,0,18.6,0,27.8,0,3.7-3.7,7.4-7.4,11.1-11.1-11,0-22,0-33,0,1.7-4,3.1-8.2,4.1-12.5,13.8,0,27.6,0,41.4,0,3.6-3.7,7.4-7.4,11.1-11.1-16.9,0-33.9,0-50.8,0,.4-4.1.4-8.3,0-12.4,15.4,0,30.7,0,46.1,0,5.7,0,11.4,0,17.1,0,3.7-3.7,7.4-7.3,11-11-25.3,0-50.6,0-75.9,0-1-4.3-2.3-8.4-4-12.5,30.8,0,61.6,0,92.4,0,3.7-3.7,7.4-7.4,11.1-11.1ZM234.9,83.6c-.5,4.6-1.7,9-3.6,13.2-1,2.3-2.3,4.4-3.6,6.6,0-.9-.1-1.8-.8-2.5-.7-.8-1.8-1-2.8-.9,3.1-4.9,5.3-10.5,6-16.3,1.2-10-.6-20.4-4.9-29.5-4.5-9.5-11.8-17.7-20.7-23.3-9.8-6.2-21.6-9.1-33.2-8.2-10.9.7-21.5,4.9-30.1,11.6-7.5,5.8-13.5,13.7-17.1,22.5-4.8,11.9-5.3,25.5-1.3,37.7,3.3,10.2,9.7,19.4,18,26.1,7.7,6.3,17.2,10.4,27.1,11.7,3.1.2,6.3.1,9.3-.8,3-1,5.9-2.3,8.3-4.3,1.9-2.1,3.5-4.4,5.3-6.6,2.2-2.6,3.9-5.5,6.3-7.9,3.2-3.4,7.6-5.6,12.2-6.2,2.7-.3,5.7-.6,8.1,1,1.9,1.3,2.8,3.8,2.2,6-.8,2.9-3.3,5.1-6,6.4-10.5,5-21,9.9-31.5,14.9-4.8,2.1-10.3,3-15.5,2.1-11.3-1.6-22.1-6.6-30.7-14.2-7.9-6.9-14-15.9-17.3-25.8-1.8-5.1-2.8-10.5-3.1-15.9,0-2.1,0-4.3-.1-6.4.5-10.5,4-20.8,9.8-29.6,5.9-9,14.3-16.4,24-21.1,10.3-5,22-6.9,33.3-5.5,10.9,1.3,21.5,5.7,30.1,12.6,7.3,5.8,13.3,13.4,17.2,21.9,4.5,9.6,6.3,20.4,5.2,30.9ZM163.8,94.2c-5.6-1.5-11.2-3.2-16.8-4.7,3.1-8.4,6.4-16.7,9.6-25-6.9,3.9-13.8,7.8-20.7,11.7-1.4-7.7-2.8-15.3-4.1-23,5.1,0,10.2,0,15.3.2,4.6,0,9.2,0,13.8.1.2-.4.3-.8.5-1.2,9.5,0,19,0,28.5,0,1,4.4,2,8.9,3,13.3,11.1,0,22.2,0,33.3,0-3.3,9.6-6.5,19.1-9.8,28.7-8-.8-16-1.5-23.9-2.2-1.8-.3-3.7-.1-5.5-.6-.8-1.8-1.5-3.6-2.4-5.4-.9,4.4-1.8,8.9-2.8,13.3-6-1.7-12-3.3-18-5.1ZM180.1,107.5c-.4,1.8-.7,3.7-1.2,5.6-12.3-3.5-24.6-7.2-37-10.7.6-1.7,1.3-3.4,1.9-5,12.1,3.4,24.1,6.8,36.2,10.2Z"/>
  <path class="st0" d="M178.9,64.3c-1.3.6-1.6,2.6-.5,3.5,1.2,1.2,3.6.3,3.6-1.4.2-1.6-1.7-2.9-3.2-2.1Z"/>
  <path class="st0" d="M214.8,112.3c.2-.9-.9-1.2-1.6-1.2-3.7-.2-7.5.8-10.5,3-3.4,2.4-5.4,6.2-8.1,9.4,5.5-2.5,10.9-5.1,16.4-7.7,1.5-.8,3.2-1.8,3.8-3.4Z"/>
</svg>